<mxfile host="Electron" agent="Mozilla/5.0 (Windows NT 10.0; Win64; x64) AppleWebKit/537.36 (KHTML, like Gecko) draw.io/28.0.6 Chrome/138.0.7204.100 Electron/37.2.3 Safari/537.36" version="28.0.6">
  <diagram name="Page-1" id="gl6GL9wmT8X6uOlHBoOp">
    <mxGraphModel dx="1042" dy="660" grid="1" gridSize="10" guides="1" tooltips="1" connect="1" arrows="1" fold="1" page="1" pageScale="1" pageWidth="850" pageHeight="1100" math="0" shadow="0">
      <root>
        <mxCell id="0" />
        <mxCell id="1" parent="0" />
        <mxCell id="SmJE3iT0zlwTi7WGiPbn-1" value="&lt;h1 style=&quot;margin-top: 0px;&quot;&gt;Integration Model&lt;/h1&gt;" style="text;html=1;whiteSpace=wrap;overflow=hidden;rounded=0;" parent="1" vertex="1">
          <mxGeometry width="220" height="40" as="geometry" />
        </mxCell>
        <mxCell id="SmJE3iT0zlwTi7WGiPbn-2" value="crm_cust_info" style="swimlane;fontStyle=0;childLayout=stackLayout;horizontal=1;startSize=30;horizontalStack=0;resizeParent=1;resizeParentMax=0;resizeLast=0;collapsible=1;marginBottom=0;whiteSpace=wrap;html=1;rounded=1;fontSize=14;fillColor=#6a00ff;strokeColor=#3700CC;fontColor=#ffffff;" parent="1" vertex="1">
          <mxGeometry x="255" y="330" width="140" height="110" as="geometry" />
        </mxCell>
        <mxCell id="SmJE3iT0zlwTi7WGiPbn-3" value="cst_id" style="text;strokeColor=none;fillColor=none;align=left;verticalAlign=middle;spacingLeft=4;spacingRight=4;overflow=hidden;points=[[0,0.5],[1,0.5]];portConstraint=eastwest;rotatable=0;whiteSpace=wrap;html=1;fontSize=14;" parent="SmJE3iT0zlwTi7WGiPbn-2" vertex="1">
          <mxGeometry y="30" width="140" height="40" as="geometry" />
        </mxCell>
        <mxCell id="SmJE3iT0zlwTi7WGiPbn-30" value="cst_key" style="text;strokeColor=none;fillColor=none;align=left;verticalAlign=middle;spacingLeft=4;spacingRight=4;overflow=hidden;points=[[0,0.5],[1,0.5]];portConstraint=eastwest;rotatable=0;whiteSpace=wrap;html=1;fontSize=14;" parent="SmJE3iT0zlwTi7WGiPbn-2" vertex="1">
          <mxGeometry y="70" width="140" height="40" as="geometry" />
        </mxCell>
        <mxCell id="SmJE3iT0zlwTi7WGiPbn-6" value="Costumer Information" style="text;html=1;align=center;verticalAlign=middle;whiteSpace=wrap;rounded=0;" parent="1" vertex="1">
          <mxGeometry x="250" y="300" width="150" height="30" as="geometry" />
        </mxCell>
        <mxCell id="SmJE3iT0zlwTi7WGiPbn-14" value="crm_sales_details" style="swimlane;fontStyle=0;childLayout=stackLayout;horizontal=1;startSize=30;horizontalStack=0;resizeParent=1;resizeParentMax=0;resizeLast=0;collapsible=1;marginBottom=0;whiteSpace=wrap;html=1;rounded=1;fontSize=14;fillColor=#6a00ff;strokeColor=#3700CC;fontColor=#ffffff;" parent="1" vertex="1">
          <mxGeometry x="45" y="210" width="140" height="110" as="geometry" />
        </mxCell>
        <mxCell id="SmJE3iT0zlwTi7WGiPbn-15" value="prd_key" style="text;strokeColor=none;fillColor=none;align=left;verticalAlign=middle;spacingLeft=4;spacingRight=4;overflow=hidden;points=[[0,0.5],[1,0.5]];portConstraint=eastwest;rotatable=0;whiteSpace=wrap;html=1;fontSize=14;" parent="SmJE3iT0zlwTi7WGiPbn-14" vertex="1">
          <mxGeometry y="30" width="140" height="40" as="geometry" />
        </mxCell>
        <mxCell id="SmJE3iT0zlwTi7WGiPbn-17" value="cs_id" style="text;strokeColor=none;fillColor=none;align=left;verticalAlign=middle;spacingLeft=4;spacingRight=4;overflow=hidden;points=[[0,0.5],[1,0.5]];portConstraint=eastwest;rotatable=0;whiteSpace=wrap;html=1;fontSize=14;" parent="SmJE3iT0zlwTi7WGiPbn-14" vertex="1">
          <mxGeometry y="70" width="140" height="40" as="geometry" />
        </mxCell>
        <mxCell id="SmJE3iT0zlwTi7WGiPbn-16" value="Transactional Records about Sales &amp;amp; Orders" style="text;html=1;align=center;verticalAlign=middle;whiteSpace=wrap;rounded=0;" parent="1" vertex="1">
          <mxGeometry x="40" y="180" width="150" height="30" as="geometry" />
        </mxCell>
        <mxCell id="SmJE3iT0zlwTi7WGiPbn-20" style="edgeStyle=orthogonalEdgeStyle;rounded=0;orthogonalLoop=1;jettySize=auto;html=1;exitX=1;exitY=0.5;exitDx=0;exitDy=0;entryX=0;entryY=0.5;entryDx=0;entryDy=0;" parent="1" source="SmJE3iT0zlwTi7WGiPbn-17" target="SmJE3iT0zlwTi7WGiPbn-3" edge="1">
          <mxGeometry relative="1" as="geometry" />
        </mxCell>
        <mxCell id="SmJE3iT0zlwTi7WGiPbn-24" value="Extra Costumer Information" style="text;html=1;align=center;verticalAlign=middle;whiteSpace=wrap;rounded=0;" parent="1" vertex="1">
          <mxGeometry x="600" y="230" width="150" height="30" as="geometry" />
        </mxCell>
        <mxCell id="SmJE3iT0zlwTi7WGiPbn-28" value="bronze.erp_cust_az12" style="swimlane;fontStyle=0;childLayout=stackLayout;horizontal=1;startSize=30;horizontalStack=0;resizeParent=1;resizeParentMax=0;resizeLast=0;collapsible=1;marginBottom=0;whiteSpace=wrap;html=1;rounded=1;fontSize=14;fillColor=#e51400;strokeColor=#B20000;fontColor=#ffffff;" parent="1" vertex="1">
          <mxGeometry x="597.5" y="260" width="155" height="70" as="geometry" />
        </mxCell>
        <mxCell id="SmJE3iT0zlwTi7WGiPbn-29" value="c_id" style="text;strokeColor=none;fillColor=none;align=left;verticalAlign=middle;spacingLeft=4;spacingRight=4;overflow=hidden;points=[[0,0.5],[1,0.5]];portConstraint=eastwest;rotatable=0;whiteSpace=wrap;html=1;fontSize=14;" parent="SmJE3iT0zlwTi7WGiPbn-28" vertex="1">
          <mxGeometry y="30" width="155" height="40" as="geometry" />
        </mxCell>
        <mxCell id="SmJE3iT0zlwTi7WGiPbn-31" style="edgeStyle=orthogonalEdgeStyle;rounded=0;orthogonalLoop=1;jettySize=auto;html=1;entryX=0;entryY=0.5;entryDx=0;entryDy=0;" parent="1" source="SmJE3iT0zlwTi7WGiPbn-30" target="SmJE3iT0zlwTi7WGiPbn-29" edge="1">
          <mxGeometry relative="1" as="geometry" />
        </mxCell>
        <mxCell id="SmJE3iT0zlwTi7WGiPbn-32" value="Location of Customers (Country)" style="text;html=1;align=center;verticalAlign=middle;whiteSpace=wrap;rounded=0;" parent="1" vertex="1">
          <mxGeometry x="597.5" y="380" width="150" height="30" as="geometry" />
        </mxCell>
        <mxCell id="SmJE3iT0zlwTi7WGiPbn-33" value="bronze.erp_loc_a101" style="swimlane;fontStyle=0;childLayout=stackLayout;horizontal=1;startSize=30;horizontalStack=0;resizeParent=1;resizeParentMax=0;resizeLast=0;collapsible=1;marginBottom=0;whiteSpace=wrap;html=1;rounded=1;fontSize=14;fillColor=#e51400;strokeColor=#B20000;fontColor=#ffffff;" parent="1" vertex="1">
          <mxGeometry x="595" y="410" width="155" height="70" as="geometry" />
        </mxCell>
        <mxCell id="SmJE3iT0zlwTi7WGiPbn-34" value="c_id" style="text;strokeColor=none;fillColor=none;align=left;verticalAlign=middle;spacingLeft=4;spacingRight=4;overflow=hidden;points=[[0,0.5],[1,0.5]];portConstraint=eastwest;rotatable=0;whiteSpace=wrap;html=1;fontSize=14;" parent="SmJE3iT0zlwTi7WGiPbn-33" vertex="1">
          <mxGeometry y="30" width="155" height="40" as="geometry" />
        </mxCell>
        <mxCell id="SmJE3iT0zlwTi7WGiPbn-35" style="edgeStyle=orthogonalEdgeStyle;rounded=0;orthogonalLoop=1;jettySize=auto;html=1;entryX=0;entryY=0.5;entryDx=0;entryDy=0;" parent="1" source="SmJE3iT0zlwTi7WGiPbn-30" target="SmJE3iT0zlwTi7WGiPbn-34" edge="1">
          <mxGeometry relative="1" as="geometry" />
        </mxCell>
        <mxCell id="SmJE3iT0zlwTi7WGiPbn-37" value="Product Categories" style="text;html=1;align=center;verticalAlign=middle;whiteSpace=wrap;rounded=0;" parent="1" vertex="1">
          <mxGeometry x="595" y="80" width="150" height="30" as="geometry" />
        </mxCell>
        <mxCell id="SmJE3iT0zlwTi7WGiPbn-38" value="bronze.erp_px_cat_g1v2" style="swimlane;fontStyle=0;childLayout=stackLayout;horizontal=1;startSize=30;horizontalStack=0;resizeParent=1;resizeParentMax=0;resizeLast=0;collapsible=1;marginBottom=0;whiteSpace=wrap;html=1;rounded=1;fontSize=14;fillColor=#e51400;strokeColor=#B20000;fontColor=#ffffff;" parent="1" vertex="1">
          <mxGeometry x="592.5" y="110" width="155" height="70" as="geometry" />
        </mxCell>
        <mxCell id="SmJE3iT0zlwTi7WGiPbn-39" value="prd_id" style="text;strokeColor=none;fillColor=none;align=left;verticalAlign=middle;spacingLeft=4;spacingRight=4;overflow=hidden;points=[[0,0.5],[1,0.5]];portConstraint=eastwest;rotatable=0;whiteSpace=wrap;html=1;fontSize=14;" parent="SmJE3iT0zlwTi7WGiPbn-38" vertex="1">
          <mxGeometry y="30" width="155" height="40" as="geometry" />
        </mxCell>
        <mxCell id="SmJE3iT0zlwTi7WGiPbn-41" value="crm_prd_info" style="swimlane;fontStyle=0;childLayout=stackLayout;horizontal=1;startSize=30;horizontalStack=0;resizeParent=1;resizeParentMax=0;resizeLast=0;collapsible=1;marginBottom=0;whiteSpace=wrap;html=1;rounded=1;fontSize=14;fillColor=#6a00ff;strokeColor=#3700CC;fontColor=#ffffff;" parent="1" vertex="1">
          <mxGeometry x="235" y="120" width="140" height="70" as="geometry" />
        </mxCell>
        <mxCell id="SmJE3iT0zlwTi7WGiPbn-42" value="&lt;span style=&quot;text-wrap-mode: nowrap;&quot;&gt;prd_key&lt;/span&gt;" style="text;strokeColor=none;fillColor=none;align=left;verticalAlign=middle;spacingLeft=4;spacingRight=4;overflow=hidden;points=[[0,0.5],[1,0.5]];portConstraint=eastwest;rotatable=0;whiteSpace=wrap;html=1;fontSize=14;" parent="SmJE3iT0zlwTi7WGiPbn-41" vertex="1">
          <mxGeometry y="30" width="140" height="40" as="geometry" />
        </mxCell>
        <mxCell id="SmJE3iT0zlwTi7WGiPbn-44" value="Current &amp;amp; History Product Information" style="text;html=1;align=center;verticalAlign=middle;whiteSpace=wrap;rounded=0;" parent="1" vertex="1">
          <mxGeometry x="230" y="90" width="150" height="30" as="geometry" />
        </mxCell>
        <mxCell id="SmJE3iT0zlwTi7WGiPbn-45" style="edgeStyle=orthogonalEdgeStyle;rounded=0;orthogonalLoop=1;jettySize=auto;html=1;entryX=0;entryY=0.5;entryDx=0;entryDy=0;" parent="1" source="SmJE3iT0zlwTi7WGiPbn-15" target="SmJE3iT0zlwTi7WGiPbn-42" edge="1">
          <mxGeometry relative="1" as="geometry" />
        </mxCell>
        <mxCell id="SmJE3iT0zlwTi7WGiPbn-46" style="edgeStyle=orthogonalEdgeStyle;rounded=0;orthogonalLoop=1;jettySize=auto;html=1;exitX=1;exitY=0.5;exitDx=0;exitDy=0;entryX=0;entryY=0.5;entryDx=0;entryDy=0;" parent="1" source="SmJE3iT0zlwTi7WGiPbn-42" target="SmJE3iT0zlwTi7WGiPbn-39" edge="1">
          <mxGeometry relative="1" as="geometry" />
        </mxCell>
        <mxCell id="SmJE3iT0zlwTi7WGiPbn-51" value="" style="rounded=1;whiteSpace=wrap;html=1;fillColor=none;" parent="1" vertex="1">
          <mxGeometry x="30" y="70" width="420" height="430" as="geometry" />
        </mxCell>
        <mxCell id="SmJE3iT0zlwTi7WGiPbn-52" value="&lt;font style=&quot;font-size: 17px;&quot;&gt;&lt;b&gt;CRM&lt;/b&gt;&lt;/font&gt;" style="rounded=1;whiteSpace=wrap;html=1;fillColor=#6a00ff;fontColor=#ffffff;strokeColor=#3700CC;" parent="1" vertex="1">
          <mxGeometry x="185" y="50" width="100" height="30" as="geometry" />
        </mxCell>
        <mxCell id="SmJE3iT0zlwTi7WGiPbn-53" value="" style="rounded=1;whiteSpace=wrap;html=1;fillColor=none;" parent="1" vertex="1">
          <mxGeometry x="580" y="60" width="185" height="480" as="geometry" />
        </mxCell>
        <mxCell id="SmJE3iT0zlwTi7WGiPbn-54" value="&lt;font style=&quot;font-size: 15px;&quot;&gt;&lt;b&gt;ERP&lt;/b&gt;&lt;/font&gt;" style="rounded=1;whiteSpace=wrap;html=1;fillColor=#e51400;fontColor=#ffffff;strokeColor=#B20000;" parent="1" vertex="1">
          <mxGeometry x="620" y="50" width="95" height="30" as="geometry" />
        </mxCell>
        <mxCell id="D4peIQMg_pqN6xxGLM96-1" value="PRODUCT" style="text;html=1;strokeColor=#b85450;fillColor=#f8cecc;align=center;verticalAlign=middle;whiteSpace=wrap;overflow=hidden;rounded=1;" vertex="1" parent="1">
          <mxGeometry x="270" y="190" width="70" height="20" as="geometry" />
        </mxCell>
        <mxCell id="D4peIQMg_pqN6xxGLM96-2" value="PRODUCT" style="text;html=1;strokeColor=#b85450;fillColor=#f8cecc;align=center;verticalAlign=middle;whiteSpace=wrap;overflow=hidden;rounded=1;" vertex="1" parent="1">
          <mxGeometry x="640" y="180" width="70" height="20" as="geometry" />
        </mxCell>
        <mxCell id="D4peIQMg_pqN6xxGLM96-3" value="CUSTOMER" style="text;html=1;strokeColor=#d6b656;fillColor=#fff2cc;align=center;verticalAlign=middle;whiteSpace=wrap;overflow=hidden;rounded=1;" vertex="1" parent="1">
          <mxGeometry x="285" y="440" width="70" height="20" as="geometry" />
        </mxCell>
        <mxCell id="D4peIQMg_pqN6xxGLM96-4" value="CUSTOMER" style="text;html=1;strokeColor=#d6b656;fillColor=#fff2cc;align=center;verticalAlign=middle;whiteSpace=wrap;overflow=hidden;rounded=1;" vertex="1" parent="1">
          <mxGeometry x="645" y="330" width="70" height="20" as="geometry" />
        </mxCell>
        <mxCell id="D4peIQMg_pqN6xxGLM96-5" value="CUSTOMER" style="text;html=1;strokeColor=#d6b656;fillColor=#fff2cc;align=center;verticalAlign=middle;whiteSpace=wrap;overflow=hidden;rounded=1;" vertex="1" parent="1">
          <mxGeometry x="637.5" y="480" width="70" height="20" as="geometry" />
        </mxCell>
        <mxCell id="D4peIQMg_pqN6xxGLM96-7" value="SALES" style="text;html=1;strokeColor=#9673a6;fillColor=#e1d5e7;align=center;verticalAlign=middle;whiteSpace=wrap;overflow=hidden;rounded=1;" vertex="1" parent="1">
          <mxGeometry x="75" y="320" width="70" height="20" as="geometry" />
        </mxCell>
      </root>
    </mxGraphModel>
  </diagram>
</mxfile>
